{
  "accessors": [
    {
      "bufferView": 2,
      "componentType": 5126,
      "count": 363,
      "max": [
        0.44094499945640564,
        0.1420080065727234,
        -0.04167100042104721
      ],
      "min": [
        0.18044500052928925,
        -0.005526999942958355,
        -0.3021720051765442
      ],
      "type": "VEC3"
    },
    {
      "bufferView": 2,
      "byteOffset": 4356,
      "componentType": 5126,
      "count": 363,
      "max": [
        1.0,
        1.0,
        1.0
      ],
      "min": [
        -1.0,
        -1.0,
        -1.0
      ],
      "type": "VEC3"
    },
    {
      "bufferView": 3,
      "componentType": 5126,
      "count": 363,
      "max": [
        0.9963431358337402,
        0.4507838189601898,
        0.9986940622329712,
        1.0
      ],
      "min": [
        -0.9999151229858398,
        -0.9998697638511658,
        -0.9963428974151611,
        1.0
      ],
      "type": "VEC4"
    },
    {
      "bufferView": 1,
      "componentType": 5126,
      "count": 363,
      "max": [
        0.9941009879112244,
        0.5938420295715332
      ],
      "min": [
        0.4382849931716919,
        0.003674000035971403
      ],
      "type": "VEC2"
    },
    {
      "bufferView": 0,
      "componentType": 5125,
      "count": 1536,
      "type": "SCALAR"
    },
    {
      "bufferView": 2,
      "byteOffset": 8712,
      "componentType": 5126,
      "count": 363,
      "max": [
        -0.7911379933357239,
        0.1471569985151291,
        -0.4560779929161072
      ],
      "min": [
        -1.0769000053405762,
        -0.014685000292956829,
        -0.7418389916419983
      ],
      "type": "VEC3"
    },
    {
      "bufferView": 2,
      "byteOffset": 13068,
      "componentType": 5126,
      "count": 363,
      "max": [
        1.0,
        1.0,
        1.0
      ],
      "min": [
        -1.0,
        -1.0,
        -1.0
      ],
      "type": "VEC3"
    },
    {
      "bufferView": 3,
      "byteOffset": 5808,
      "componentType": 5126,
      "count": 363,
      "max": [
        0.996345043182373,
        0.450768381357193,
        0.9986931085586548,
        1.0
      ],
      "min": [
        -0.9999145865440369,
        -0.999869704246521,
        -0.9963448643684387,
        1.0
      ],
      "type": "VEC4"
    },
    {
      "bufferView": 1,
      "byteOffset": 2904,
      "componentType": 5126,
      "count": 363,
      "max": [
        0.9941009879112244,
        0.5938420295715332
      ],
      "min": [
        0.4382849931716919,
        0.003674000035971403
      ],
      "type": "VEC2"
    },
    {
      "bufferView": 0,
      "byteOffset": 6144,
      "componentType": 5125,
      "count": 1536,
      "type": "SCALAR"
    },
    {
      "bufferView": 2,
      "byteOffset": 17424,
      "componentType": 5126,
      "count": 363,
      "max": [
        -0.18701499700546265,
        0.2415499985218048,
        -0.1436299979686737
      ],
      "min": [
        -0.6273300051689148,
        -0.007822999730706215,
        -0.5839449763298035
      ],
      "type": "VEC3"
    },
    {
      "bufferView": 2,
      "byteOffset": 21780,
      "componentType": 5126,
      "count": 363,
      "max": [
        1.0,
        1.0,
        1.0
      ],
      "min": [
        -1.0,
        -1.0,
        -1.0
      ],
      "type": "VEC3"
    },
    {
      "bufferView": 3,
      "byteOffset": 11616,
      "componentType": 5126,
      "count": 363,
      "max": [
        0.9963425993919373,
        0.4507717192173004,
        0.9986931681632996,
        1.0
      ],
      "min": [
        -0.9999147057533264,
        -0.9998698234558105,
        -0.9963443279266357,
        1.0
      ],
      "type": "VEC4"
    },
    {
      "bufferView": 1,
      "byteOffset": 5808,
      "componentType": 5126,
      "count": 363,
      "max": [
        0.9941009879112244,
        0.5938420295715332
      ],
      "min": [
        0.4382849931716919,
        0.003674000035971403
      ],
      "type": "VEC2"
    },
    {
      "bufferView": 0,
      "byteOffset": 12288,
      "componentType": 5125,
      "count": 1536,
      "type": "SCALAR"
    },
    {
      "bufferView": 2,
      "byteOffset": 26136,
      "componentType": 5126,
      "count": 363,
      "max": [
        0.24879400432109833,
        0.22268100082874298,
        0.1282780021429062
      ],
      "min": [
        -0.17028500139713287,
        -0.014665000140666962,
        -0.2908009886741638
      ],
      "type": "VEC3"
    },
    {
      "bufferView": 2,
      "byteOffset": 30492,
      "componentType": 5126,
      "count": 363,
      "max": [
        1.0,
        1.0,
        1.0
      ],
      "min": [
        -1.0,
        -1.0,
        -1.0
      ],
      "type": "VEC3"
    },
    {
      "bufferView": 3,
      "byteOffset": 17424,
      "componentType": 5126,
      "count": 363,
      "max": [
        0.9963445067405701,
        0.4507819712162018,
        0.9986936450004578,
        1.0
      ],
      "min": [
        -0.9999148845672607,
        -0.9998697638511658,
        -0.9963423609733582,
        1.0
      ],
      "type": "VEC4"
    },
    {
      "bufferView": 1,
      "byteOffset": 8712,
      "componentType": 5126,
      "count": 363,
      "max": [
        0.9941009879112244,
        0.5938420295715332
      ],
      "min": [
        0.4382849931716919,
        0.003674000035971403
      ],
      "type": "VEC2"
    },
    {
      "bufferView": 0,
      "byteOffset": 18432,
      "componentType": 5125,
      "count": 1536,
      "type": "SCALAR"
    },
    {
      "bufferView": 2,
      "byteOffset": 34848,
      "componentType": 5126,
      "count": 597,
      "max": [
        0.38215699791908264,
        2.1808741092681885,
        0.33697500824928284
      ],
      "min": [
        -1.055364966392517,
        -0.006930999923497438,
        -0.6483709812164307
      ],
      "type": "VEC3"
    },
    {
      "bufferView": 2,
      "byteOffset": 42012,
      "componentType": 5126,
      "count": 597,
      "max": [
        1.0,
        1.0,
        1.0
      ],
      "min": [
        -1.0,
        -1.0,
        -1.0
      ],
      "type": "VEC3"
    },
    {
      "bufferView": 3,
      "byteOffset": 23232,
      "componentType": 5126,
      "count": 597,
      "max": [
        0.9998909831047058,
        0.09516968578100204,
        0.9999968409538269,
        1.0
      ],
      "min": [
        -0.9999248385429382,
        -0.07689163088798523,
        -0.9998904466629028,
        1.0
      ],
      "type": "VEC4"
    },
    {
      "bufferView": 1,
      "byteOffset": 11616,
      "componentType": 5126,
      "count": 597,
      "max": [
        0.46243101358413696,
        0.9811409711837769
      ],
      "min": [
        0.021696999669075012,
        0.48807498812675476
      ],
      "type": "VEC2"
    },
    {
      "bufferView": 0,
      "byteOffset": 24576,
      "componentType": 5125,
      "count": 1368,
      "type": "SCALAR"
    },
    {
      "bufferView": 2,
      "byteOffset": 49176,
      "componentType": 5126,
      "count": 363,
      "max": [
        -0.4450330138206482,
        0.22268100082874298,
        -0.38941898941993713
      ],
      "min": [
        -0.8641110062599182,
        -0.014665000140666962,
        -0.8084980249404907
      ],
      "type": "VEC3"
    },
    {
      "bufferView": 2,
      "byteOffset": 53532,
      "componentType": 5126,
      "count": 363,
      "max": [
        1.0,
        1.0,
        1.0
      ],
      "min": [
        -1.0,
        -1.0,
        -1.0
      ],
      "type": "VEC3"
    },
    {
      "bufferView": 3,
      "byteOffset": 32784,
      "componentType": 5126,
      "count": 363,
      "max": [
        0.9963423013687134,
        0.45077216625213623,
        0.9986936450004578,
        1.0
      ],
      "min": [
        -0.9999145865440369,
        -0.9998697638511658,
        -0.9963443279266357,
        1.0
      ],
      "type": "VEC4"
    },
    {
      "bufferView": 1,
      "byteOffset": 16392,
      "componentType": 5126,
      "count": 363,
      "max": [
        0.9941009879112244,
        0.5938420295715332
      ],
      "min": [
        0.4382849931716919,
        0.003674000035971403
      ],
      "type": "VEC2"
    },
    {
      "bufferView": 0,
      "byteOffset": 30048,
      "componentType": 5125,
      "count": 1536,
      "type": "SCALAR"
    }
  ],
  "asset": {
    "extras": {
      "author": "Andrea Ossandon (https://sketchfab.com/andreaossandon)",
      "license": "CC-BY-4.0 (http://creativecommons.org/licenses/by/4.0/)",
      "source": "https://sketchfab.com/3d-models/velas-comunes-97a274c20b0c465885f1ed30fbd1e6cb",
      "title": "Velas Comunes"
    },
    "generator": "Sketchfab-12.68.0",
    "version": "2.0"
  },
  "bufferViews": [
    {
      "buffer": 0,
      "byteLength": 36192,
      "name": "floatBufferViews",
      "target": 34963
    },
    {
      "buffer": 0,
      "byteLength": 19296,
      "byteOffset": 36192,
      "byteStride": 8,
      "name": "floatBufferViews",
      "target": 34962
    },
    {
      "buffer": 0,
      "byteLength": 57888,
      "byteOffset": 55488,
      "byteStride": 12,
      "name": "floatBufferViews",
      "target": 34962
    },
    {
      "buffer": 0,
      "byteLength": 38592,
      "byteOffset": 113376,
      "byteStride": 16,
      "name": "floatBufferViews",
      "target": 34962
    }
  ],
  "buffers": [
    {
      "byteLength": 151968,
      "uri": "scene.bin"
    }
  ],
  "images": [
    {
      "uri": "textures/initialShadingGroup_baseColor.jpeg"
    },
    {
      "uri": "textures/initialShadingGroup_metallicRoughness.png"
    },
    {
      "uri": "textures/initialShadingGroup_normal.png"
    }
  ],
  "materials": [
    {
      "doubleSided": true,
      "name": "initialShadingGroup",
      "normalTexture": {
        "index": 2
      },
      "occlusionTexture": {
        "index": 1
      },
      "pbrMetallicRoughness": {
        "baseColorTexture": {
          "index": 0
        },
        "metallicRoughnessTexture": {
          "index": 1
        }
      }
    }
  ],
  "meshes": [
    {
      "name": "defaultMaterial",
      "primitives": [
        {
          "attributes": {
            "NORMAL": 1,
            "POSITION": 0,
            "TANGENT": 2,
            "TEXCOORD_0": 3
          },
          "indices": 4,
          "material": 0,
          "mode": 4
        }
      ]
    },
    {
      "name": "defaultMaterial",
      "primitives": [
        {
          "attributes": {
            "NORMAL": 6,
            "POSITION": 5,
            "TANGENT": 7,
            "TEXCOORD_0": 8
          },
          "indices": 9,
          "material": 0,
          "mode": 4
        }
      ]
    },
    {
      "name": "defaultMaterial",
      "primitives": [
        {
          "attributes": {
            "NORMAL": 11,
            "POSITION": 10,
            "TANGENT": 12,
            "TEXCOORD_0": 13
          },
          "indices": 14,
          "material": 0,
          "mode": 4
        }
      ]
    },
    {
      "name": "defaultMaterial",
      "primitives": [
        {
          "attributes": {
            "NORMAL": 16,
            "POSITION": 15,
            "TANGENT": 17,
            "TEXCOORD_0": 18
          },
          "indices": 19,
          "material": 0,
          "mode": 4
        }
      ]
    },
    {
      "name": "defaultMaterial",
      "primitives": [
        {
          "attributes": {
            "NORMAL": 21,
            "POSITION": 20,
            "TANGENT": 22,
            "TEXCOORD_0": 23
          },
          "indices": 24,
          "material": 0,
          "mode": 4
        }
      ]
    },
    {
      "name": "defaultMaterial",
      "primitives": [
        {
          "attributes": {
            "NORMAL": 26,
            "POSITION": 25,
            "TANGENT": 27,
            "TEXCOORD_0": 28
          },
          "indices": 29,
          "material": 0,
          "mode": 4
        }
      ]
    }
  ],
  "nodes": [
    {
      "children": [
        1
      ],
      "matrix": [
        0.12753912806510925,
        0.0,
        0.0,
        0.0,
        0.0,
        2.8319375303700157e-17,
        -0.12753912806510925,
        0.0,
        0.0,
        0.12753912806510925,
        2.8319375303700157e-17,
        0.0,
        0.0,
        0.0,
        0.0,
        1.0
      ],
      "name": "Sketchfab_model"
    },
    {
      "children": [
        2,
        4,
        6,
        8,
        10,
        12
      ],
      "matrix": [
        1.0,
        0.0,
        0.0,
        0.0,
        0.0,
        -4.371139006309477e-08,
        0.999999999999999,
        0.0,
        0.0,
        -0.999999999999999,
        -4.371139006309477e-08,
        0.0,
        0.0,
        0.0,
        0.0,
        1.0
      ],
      "name": "Collada visual scene group"
    },
    {
      "children": [
        3
      ],
      "name": "pasted__pSphere1"
    },
    {
      "mesh": 0,
      "name": "defaultMaterial"
    },
    {
      "children": [
        5
      ],
      "name": "pasted__pSphere1"
    },
    {
      "mesh": 1,
      "name": "defaultMaterial"
    },
    {
      "children": [
        7
      ],
      "name": "pasted__pSphere1"
    },
    {
      "mesh": 2,
      "name": "defaultMaterial"
    },
    {
      "children": [
        9
      ],
      "name": "pasted__pSphere1"
    },
    {
      "mesh": 3,
      "name": "defaultMaterial"
    },
    {
      "children": [
        11
      ],
      "name": "group1_pasted__pCylinder3"
    },
    {
      "mesh": 4,
      "name": "defaultMaterial"
    },
    {
      "children": [
        13
      ],
      "name": "pSphere1"
    },
    {
      "mesh": 5,
      "name": "defaultMaterial"
    }
  ],
  "samplers": [
    {
      "magFilter": 9729,
      "minFilter": 9987,
      "wrapS": 10497,
      "wrapT": 10497
    }
  ],
  "scene": 0,
  "scenes": [
    {
      "name": "Sketchfab_Scene",
      "nodes": [
        0
      ]
    }
  ],
  "textures": [
    {
      "sampler": 0,
      "source": 0
    },
    {
      "sampler": 0,
      "source": 1
    },
    {
      "sampler": 0,
      "source": 2
    }
  ]
}
